<svg fill="none" height="269" viewBox="0 0 281 269" width="281" xmlns="http://www.w3.org/2000/svg"><g fill="#3dc17a"><path d="m73.6907 236.863h-10.8242l-8.3464 13.95v-28.357h-9.5201v45.631h9.5201v-14.797l8.0204 14.797h11.0198l-9.7809-16.688z"/><path d="m77.0009 268.087h9.5201v-16.883c0-4.759 1.3694-7.171 4.6949-7.171 2.9342 0 4.108 1.956 4.108 6.258v17.796h9.6501v-20.403c0-7.758-3.456-11.669-9.5849-11.669-4.108 0-7.1727 1.76-8.8681 5.28v-4.432h-9.5201z"/><path d="m123.332 269c9.455 0 15.323-6.454 15.323-16.558s-5.868-16.557-15.323-16.557-15.324 6.453-15.324 16.557 5.869 16.558 15.324 16.558zm0-8.083c-3.717 0-5.869-2.934-5.869-8.475 0-5.54 2.152-8.474 5.869-8.474s5.868 2.934 5.868 8.474c0 5.541-2.151 8.475-5.868 8.475z"/><path d="m137.832 268.087h10.172l4.76-9.647 4.826 9.647h10.107l-9.39-15.905 9.324-15.319h-10.107l-4.76 9.126-4.694-9.126h-10.173l9.325 15.319z"/><path d="m175.044 233.799c3.391 0 5.999-2.477 5.999-5.867 0-3.455-2.608-5.932-5.999-5.932s-5.934 2.477-5.934 5.932c0 3.39 2.543 5.867 5.934 5.867zm-4.76 34.288h9.52v-31.224h-9.52z"/><path d="m199.639 260.33c-2.348 0-3.391-1.304-3.391-4.302v-11.799h5.086v-7.366h-5.086v-9.322h-9.52v9.322h-3.977v7.366h3.977v14.341c0 6.714 4.108 10.039 9.846 10.039 1.826 0 3.391-.196 5.021-.522v-7.887c-.913.065-1.434.13-1.956.13z"/><path d="m232 250.487c0-8.67-4.89-14.602-13.954-14.602-9.39 0-14.867 6.193-14.867 16.688s5.412 16.427 15.128 16.427c7.759 0 12.389-3.846 13.237-10.365h-8.608c-.521 2.086-1.956 3.194-4.694 3.194-3.717 0-5.608-2.607-5.739-6.844h19.236c.196-1.565.261-3.39.261-4.498zm-19.497-1.499c.066-4.368 2.022-6.715 5.478-6.715 3.195 0 4.955 2.217 4.955 6.715z"/><path d="m280.667 140.833c0-33.134-23.064-61.0707-53.925-68.2173-7.471-40.9305-43.204-72.1157-86.409-72.1157-48.4017 0-87.708 39.3063-87.708 87.7083v.6497c-29.8858 4.223-52.625 29.886-52.625 60.746 0 33.784 27.6119 61.396 61.3958 61.396h149.1042c38.657 0 70.167-31.51 70.167-70.167z"/></g><path d="m60.5359 178.393c1.7962 0 3.2332-1.437 3.2332-3.233v-16.166h16.1658c1.7962 0 3.2332-1.437 3.2332-3.233v-16.166h17.9619c.898 0 1.796-.359 2.335-.898l21.375-21.375c5.209 1.976 10.777 2.874 16.525 2.874 26.764 0 48.498-21.734 48.498-48.4975 0-26.7634-21.734-48.4975-48.498-48.4975-26.763 0-48.4974 21.7341-48.4974 48.4975 0 5.7479.8981 11.3161 2.8739 16.5251l-60.1729 60.1734c-.5388.538-.8981 1.436-.8981 2.335v24.428c0 1.796 1.437 3.233 3.2332 3.233zm90.5291-130.9432c8.083 0 14.549 6.4663 14.549 14.5492 0 8.083-6.466 14.5493-14.549 14.5493s-14.55-6.4663-14.55-14.5493c0-8.0829 6.467-14.5492 14.55-14.5492z" fill="#fff"/></svg>